<svg xmlns="http://www.w3.org/2000/svg" viewBox="0 0 24 24" fill="currentColor">
    <path d="M19 3H5C3.89543 3 3 3.89543 3 5V19C3 20.1046 3.89543 21 5 21H19C20.1046 21 21 20.1046 21 19V5C21 3.89543 20.1046 3 19 3ZM8.33929 17.3378H5.66762V9H8.33929V17.3378ZM7.00355 7.82857C6.14795 7.82857 5.45429 7.13481 5.45429 6.27921C5.45429 5.42362 6.14795 4.73 7.00355 4.73C7.85905 4.73 8.55281 5.42362 8.55281 6.27921C8.55281 7.13481 7.85905 7.82857 7.00355 7.82857ZM18.3323 17.3378H15.6631V12.6326C15.6631 11.2386 15.0645 10.7424 14.1388 10.7424C12.9866 10.7424 12.3581 11.6095 12.3581 12.8711V17.3378H9.68881V9H12.3581V10.1581C12.7297 9.58981 13.5284 8.77357 14.9383 8.77357C17.0621 8.77357 18.3323 10.055 18.3323 12.5029V17.3378Z"></path>
</svg>
